<svg width="282" height="283" viewBox="0 0 282 283" fill="none" xmlns="http://www.w3.org/2000/svg">
<g clip-path="url(#clip0_2014_4126)">
<path d="M282 0H0V283H282V0Z" fill="#002755"/>
<path d="M220.743 115.091V61.3164H61.2571V221.675H184.827C204.627 221.675 220.732 205.512 220.732 185.642C220.732 165.772 204.627 149.609 184.827 149.609H179.908C186.273 143.508 190.252 134.929 190.252 125.417C190.23 106.977 175.264 91.9688 156.889 91.9688H152.362H100.931H91.7062V191.086H100.931V101.237H143.106H156.889C170.177 101.237 181.006 112.093 181.017 125.428C181.017 138.763 170.209 149.62 156.911 149.62H122.176V158.877H184.816C199.529 158.877 211.497 170.888 211.497 185.653C211.497 200.417 199.529 212.428 184.816 212.428H70.471V70.5842H211.497V115.101H220.722L220.743 115.091Z" fill="url(#paint0_linear_2014_4126)"/>
</g>
<defs>
<linearGradient id="paint0_linear_2014_4126" x1="12.6124" y1="227.702" x2="330.2" y2="-5.9681" gradientUnits="userSpaceOnUse">
<stop stop-color="#BB9533"/>
<stop offset="0.44" stop-color="#F6EE88"/>
<stop offset="0.84" stop-color="#D3AD4A"/>
<stop offset="1" stop-color="#D9B043"/>
</linearGradient>
<clipPath id="clip0_2014_4126">
<rect width="282" height="283" fill="white"/>
</clipPath>
</defs>
</svg>
