<svg width="204" height="48" viewBox="0 0 204 48" fill="none" xmlns="http://www.w3.org/2000/svg">
<g clip-path="url(#clip0_2014_4266)">
<path d="M75.7612 20.2525C75.7612 23.214 73.4777 25.1967 70.3425 25.1967H61.9482V7.0625H70.0511C73.2648 7.0625 75.2036 9.02009 75.2036 11.6107C75.2036 14.2013 73.4777 15.3641 72.4943 15.682V15.7601C74.0605 16.1561 75.7612 17.6647 75.7612 20.2553V20.2525ZM68.9584 9.91802H65.5065V14.6503H69.0116C70.6843 14.6503 71.536 13.7244 71.536 12.2437C71.536 10.763 70.6058 9.91802 68.9584 9.91802ZM72.1216 19.8036C72.1216 18.1109 71.0065 17.2381 69.3058 17.2381H65.5065V22.3663H69.4375C71.0569 22.3663 72.1216 21.4935 72.1216 19.8008V19.8036Z" fill="white"/>
<path d="M88.624 21.2592H81.2664L79.9636 25.1995H76.2988L82.8074 7.0625H87.083L93.5916 25.1995H89.9268L88.624 21.2592ZM87.6406 18.3758L84.9564 10.2861L82.2471 18.3758H87.6406Z" fill="white"/>
<path d="M110.635 15.6786V25.196H108.004V22.4995C106.889 24.2172 105.003 25.355 102.134 25.355C96.9818 25.355 93.6084 21.7075 93.6084 16.0746C93.6084 10.4416 97.0883 6.875 102.532 6.875C107.447 6.875 110.103 9.67753 110.475 13.4059H106.864C106.544 11.6602 105.298 10.0484 102.535 10.0484C99.3745 10.0484 97.3012 12.349 97.3012 16.1024C97.3012 19.8559 99.2681 22.1844 102.347 22.1844C105.163 22.1844 106.836 20.4387 107.208 18.4839H102.639V15.6814H110.635V15.6786Z" fill="white"/>
<path d="M129.281 7.0625V25.1995H125.616V17.5588H117.594V25.1995H113.93V7.0625H117.594V14.3602H125.616V7.0625H129.281Z" fill="white"/>
<path d="M132.969 7.0625H136.634V25.1995H132.969V7.0625Z" fill="white"/>
<path d="M155.367 25.0656C154.916 25.1967 154.277 25.3306 153.481 25.3306C150.85 25.3306 149.817 24.1677 148.886 22.397L146.866 18.5375H143.919V25.1995H140.254V7.0625H147.48C151.57 7.0625 154.095 9.12327 154.095 12.8265C154.095 15.3641 152.792 17.1098 150.747 17.9547L152.419 21.2341C152.87 22.1069 153.428 22.3719 154.12 22.3719C154.571 22.3719 154.891 22.3189 155.157 22.2408L155.37 25.0684L155.367 25.0656ZM143.916 15.7071H147.474C149.413 15.682 150.396 14.5694 150.396 12.8795C150.396 11.1896 149.413 10.077 147.474 10.077H143.916V15.7071Z" fill="white"/>
<path d="M156.213 16.1554C156.213 10.4723 160.119 6.875 165.324 6.875C170.53 6.875 174.408 10.3914 174.408 16.0746C174.408 21.7577 170.53 25.355 165.324 25.355C160.119 25.355 156.213 21.8386 156.213 16.1554ZM170.69 16.1303C170.69 12.296 168.3 10.0484 165.324 10.0484C162.349 10.0484 159.931 12.296 159.931 16.1303C159.931 19.9646 162.321 22.2122 165.324 22.2122C168.328 22.2122 170.69 19.9646 170.69 16.1303Z" fill="white"/>
<path d="M180.723 10.0742V15.1773H188.372V18.1388H180.723V25.1967H177.059V7.0625H189.462V10.077H180.723V10.0742Z" fill="white"/>
<path d="M195.259 10.0742V15.1773H202.907V18.1388H195.259V25.1967H191.594V7.0625H203.997V10.077H195.259V10.0742Z" fill="white"/>
<path d="M68.8407 37.9665H69.642C69.4459 39.7958 68.1851 41.1288 65.9268 41.1288C63.6686 41.1288 61.9482 39.4026 61.9482 36.6085C61.9482 33.8143 63.6433 32.0742 65.9268 32.0742C68.2103 32.0742 69.4571 33.4323 69.642 35.2755H68.8407C68.6698 33.8784 67.7116 32.7797 65.9268 32.7797C64.1421 32.7797 62.7496 34.2688 62.7496 36.6085C62.7496 38.9481 64.1281 40.4233 65.9268 40.4233C67.7256 40.4233 68.6698 39.3524 68.8407 37.9665Z" fill="white"/>
<path d="M78.0078 36.6297C78.0078 33.7937 79.8458 32.0703 82.2357 32.0703C84.6257 32.0703 86.4497 33.7295 86.4637 36.5795C86.4497 39.4015 84.6257 41.1277 82.2357 41.1277C79.8458 41.1277 78.0078 39.4684 78.0078 36.6324V36.6297ZM85.6484 36.6046C85.6484 34.212 84.1522 32.7758 82.2357 32.7758C80.3193 32.7758 78.8091 34.212 78.8091 36.6046C78.8091 38.9972 80.3193 40.4193 82.2357 40.4193C84.1522 40.4193 85.6484 38.9832 85.6484 36.6046Z" fill="white"/>
<path d="M102.261 32.1484V41.0608H101.445L96.2339 33.3894V41.0608H95.4326V32.1484H96.2479L101.459 39.8198V32.1484H102.261Z" fill="white"/>
<path d="M117.645 38.7869C117.645 40.237 116.292 41.1265 114.454 41.1265C112.498 41.1265 111.159 40.2119 111.159 38.5248H111.961C111.946 39.7016 112.919 40.4182 114.507 40.4182C115.925 40.4182 116.844 39.8047 116.844 38.7841C116.844 35.9621 111.434 37.9085 111.434 34.406C111.42 32.942 112.709 32.0664 114.493 32.0664C116.278 32.0664 117.5 32.9671 117.5 34.5622H116.712C116.712 33.3352 115.779 32.7719 114.468 32.7719C113.05 32.7719 112.235 33.3464 112.235 34.3921C112.235 37.0831 117.645 35.1227 117.645 38.7813V38.7869Z" fill="white"/>
<path d="M133.299 32.1484V37.5834C133.299 39.831 132.052 41.1249 129.897 41.1249C127.743 41.1249 126.496 39.831 126.496 37.5834V32.1484H127.297V37.5834C127.297 39.4518 128.202 40.4194 129.897 40.4194C131.593 40.4194 132.498 39.4518 132.498 37.5834V32.1484H133.299Z" fill="white"/>
<path d="M148.446 40.3413V41.0608H142.722V32.1484H143.523V40.3413H148.446Z" fill="white"/>
<path d="M157.793 32.8679H154.772V32.1484H161.612V32.8679H158.591V41.0608H157.79V32.8679H157.793Z" fill="white"/>
<path d="M170.073 32.1484H170.875V41.0608H170.073V32.1484Z" fill="white"/>
<path d="M187.167 32.1484V41.0608H186.352L181.14 33.3894V41.0608H180.339V32.1484H181.154L186.366 39.8198V32.1484H187.167Z" fill="white"/>
<path d="M204 36.5393V41.0596H203.384V39.2303C202.871 40.329 201.795 41.1237 200.182 41.1237C197.806 41.1237 196.178 39.4367 196.178 36.5756C196.178 33.8706 197.845 32.0664 200.327 32.0664C202.571 32.0664 203.779 33.3603 203.964 35.0586H203.151C202.981 33.8176 202.126 32.7719 200.327 32.7719C198.318 32.7719 196.979 34.2889 196.979 36.5756C196.979 39.0184 198.318 40.4182 200.182 40.4182C202.165 40.4182 203.334 38.9821 203.334 37.5432V37.2169H200.235V36.5365H204.003L204 36.5393Z" fill="white"/>
<path d="M48.1323 16.0957V0H0V48H37.2949C43.2712 48 48.1323 43.1618 48.1323 37.2137C48.1323 31.2657 43.2712 26.4275 37.2949 26.4275H35.81C37.732 24.6037 38.9312 22.0326 38.9312 19.1855C38.9256 13.6669 34.4091 9.17446 28.8643 9.17446H27.4998H11.9777H9.19275V38.8423H11.9777V11.9491H24.7064H28.8643C32.8765 11.9491 36.1434 15.1978 36.1462 19.1883C36.1462 23.1815 32.8821 26.4275 28.8727 26.4275H18.3883V29.1993H37.2949C41.7358 29.1993 45.3473 32.7938 45.3473 37.2137C45.3473 41.6336 41.7358 45.2281 37.2949 45.2281H2.785V2.77186H45.3473V16.0957H48.1323Z" fill="url(#paint0_linear_2014_4266)"/>
</g>
<defs>
<linearGradient id="paint0_linear_2014_4266" x1="-14.6843" y1="49.8042" x2="80.6107" y2="-20.8935" gradientUnits="userSpaceOnUse">
<stop stop-color="#BB9533"/>
<stop offset="0.44" stop-color="#F6EE88"/>
<stop offset="0.84" stop-color="#D3AD4A"/>
<stop offset="1" stop-color="#D9B043"/>
</linearGradient>
<clipPath id="clip0_2014_4266">
<rect width="204" height="48" fill="white"/>
</clipPath>
</defs>
</svg>
