<svg width="298" height="298" viewBox="0 0 298 298" fill="none" xmlns="http://www.w3.org/2000/svg">
<path opacity="0.2" d="M298 99.9267V0H0V298H230.899C267.894 298 298 267.963 298 231.031C298 194.098 267.904 164.061 230.899 164.061H221.707C233.598 152.73 241.035 136.774 241.035 119.104C240.997 84.8374 213.034 56.957 178.7 56.957H170.253H74.1508H56.9084V241.147H74.1508V74.175H152.954H178.7C203.54 74.175 223.764 94.3412 223.793 119.123C223.793 143.904 203.587 164.07 178.757 164.07H113.845V181.279H230.89C258.381 181.279 280.748 203.602 280.748 231.04C280.748 258.478 258.381 280.801 230.89 280.801H17.2424V17.2086H280.758V99.9267H298Z" fill="url(#paint0_linear_2014_4030)"/>
<defs>
<linearGradient id="paint0_linear_2014_4030" x1="-21.5742" y1="300.967" x2="232.01" y2="44.7329" gradientUnits="userSpaceOnUse">
<stop stop-color="white"/>
<stop offset="1" stop-color="white" stop-opacity="0"/>
</linearGradient>
</defs>
</svg>
